<?xml version="1.0" encoding="UTF-8" standalone="no"?>
<svg
   xmlns:dc="http://purl.org/dc/elements/1.1/"
   xmlns:cc="http://creativecommons.org/ns#"
   xmlns:rdf="http://www.w3.org/1999/02/22-rdf-syntax-ns#"
   xmlns:svg="http://www.w3.org/2000/svg"
   xmlns="http://www.w3.org/2000/svg"
   xmlns:sodipodi="http://sodipodi.sourceforge.net/DTD/sodipodi-0.dtd"
   xmlns:inkscape="http://www.inkscape.org/namespaces/inkscape"
   preserveAspectRatio="xMidYMid"
   width="184"
   height="276"
   viewBox="0 0 184 276"
   version="1.1"
   id="svg12"
   sodipodi:docname="not-found.svg"
   inkscape:version="0.92.3 (2405546, 2018-03-11)">
  <metadata
     id="metadata16">
    <rdf:RDF>
      <cc:Work
         rdf:about="">
        <dc:format>image/svg+xml</dc:format>
        <dc:type
           rdf:resource="http://purl.org/dc/dcmitype/StillImage" />
        <dc:title></dc:title>
      </cc:Work>
    </rdf:RDF>
  </metadata>
  <sodipodi:namedview
     pagecolor="#ffffff"
     bordercolor="#666666"
     borderopacity="1"
     objecttolerance="10"
     gridtolerance="10"
     guidetolerance="10"
     inkscape:pageopacity="0"
     inkscape:pageshadow="2"
     inkscape:window-width="1366"
     inkscape:window-height="715"
     id="namedview14"
     showgrid="false"
     inkscape:zoom="0.78666667"
     inkscape:cx="199.57627"
     inkscape:cy="48.305085"
     inkscape:window-x="0"
     inkscape:window-y="25"
     inkscape:window-maximized="1"
     inkscape:current-layer="svg12" />
  <defs
     id="defs4">
    <style
       id="style2">
      .cls-1 {
        fill: #ebe7e3;
      }

      .cls-2 {
        fill: #ad998c;
        opacity: 0.75;
        fill-rule: evenodd;
      }
    </style>
  </defs>
  <g
     id="g832"
     transform="translate(-287.28815,-68.491524)">
    <rect
       style="fill:#ebe7e3;stroke-width:0.75117683"
       y="68.491524"
       x="287.28815"
       id="rect6"
       class="cls-1"
       height="276"
       width="184" />
    <path
       id="path8"
       class="cls-2"
       d="m 451.61215,208.973 h -4.717 v -12.604 h 4.717 c 3.601,0 6.212,2.341 6.212,6.302 0,3.961 -2.611,6.302 -6.212,6.302 z m 0,-10.389 h -2.413 v 8.174 h 2.413 c 2.449,0 3.691,-1.566 3.691,-4.087 0,-2.521 -1.242,-4.087 -3.691,-4.087 z m -15.139,1.746 v 8.643 h -2.304 v -12.604 h 2.268 l 5.384,8.138 v -8.138 h 2.305 v 12.604 h -1.891 z m -10.151,8.895 c -3.547,0 -5.221,-2.233 -5.221,-5.654 v -7.202 h 2.304 v 6.428 c 0,2.341 0.486,4.213 2.917,4.213 2.431,0 2.917,-1.872 2.917,-4.213 v -6.428 h 2.305 v 7.202 c 0,3.421 -1.675,5.654 -5.222,5.654 z m -13.302,0 c -3.601,0 -6.212,-2.593 -6.212,-6.554 0,-3.961 2.611,-6.554 6.212,-6.554 3.601,0 6.212,2.593 6.212,6.554 0,3.961 -2.611,6.554 -6.212,6.554 z m 0,-10.894 c -2.448,0 -3.691,1.819 -3.691,4.34 0,2.521 1.243,4.339 3.691,4.339 2.449,0 3.691,-1.818 3.691,-4.339 0,-2.521 -1.242,-4.34 -3.691,-4.34 z m -12.511,2.953 h 4.213 v 2.233 h -4.213 v 5.456 h -2.305 v -12.604 h 7.761 v 2.233 h -5.456 z m -11.573,7.689 h -2.305 v -10.371 h -3.565 v -2.233 h 9.435 v 2.233 h -3.565 z m -12.744,0.252 c -3.601,0 -6.212,-2.593 -6.212,-6.554 0,-3.961 2.611,-6.554 6.212,-6.554 3.601,0 6.212,2.593 6.212,6.554 0,3.961 -2.611,6.554 -6.212,6.554 z m 0,-10.894 c -2.449,0 -3.691,1.819 -3.691,4.34 0,2.521 1.242,4.339 3.691,4.339 2.449,0 3.691,-1.818 3.691,-4.339 0,-2.521 -1.242,-4.34 -3.691,-4.34 z m -15.877,1.999 v 8.643 h -2.305 v -12.604 h 2.269 l 5.384,8.138 v -8.138 h 2.304 v 12.604 h -1.89 z m -16.579,-3.961 h 8.067 v 2.233 h -5.708 v 2.682 h 4.429 v 2.233 h -4.429 v 3.223 h 5.888 v 2.233 h -8.247 z m -6.55,12.856 c -3.529,0 -6.158,-2.593 -6.158,-6.572 0,-3.943 2.593,-6.536 6.284,-6.536 1.224,0 2.863,0.288 3.781,0.738 l -0.252,2.197 c -0.972,-0.396 -2.359,-0.721 -3.475,-0.721 -2.629,0 -3.817,1.837 -3.817,4.286 0,2.575 1.314,4.393 3.925,4.393 0.522,0 1.116,-0.072 1.728,-0.198 v -2.251 h -1.386 v -1.908 h 3.691 v 5.617 c -0.918,0.523 -2.881,0.955 -4.321,0.955 z m -10.116,-3.295 h -4.195 l -1.081,3.043 h -2.394 l 4.483,-12.604 h 2.179 l 4.483,12.604 h -2.395 z m -2.107,-5.924 -1.296,3.691 h 2.611 z m -9.88,0.522 -3.223,5.798 -3.241,-5.78 -1.08,8.427 h -2.395 l 1.746,-12.604 h 1.891 l 3.079,5.744 3.061,-5.744 h 1.89 l 1.747,12.604 h -2.395 z m -14.331,-4.159 h 2.305 v 12.604 h -2.305 z"
       inkscape:connector-curvature="0"
       style="opacity:0.75;fill:#ad998c;fill-rule:evenodd" />
    <path
       id="path10"
       class="cls-2"
       d="m 425.42415,158.977 -35.517,-61.109 c -5.528,-9.511 -14.583,-9.517 -20.121,-0.013 l -35.641,61.136 c -5.539,9.504 -1.051,17.278 9.973,17.278 h 71.312 c 11.024,0 15.522,-7.781 9.994,-17.292 z m -45.252,6.531 c -3.415,0 -6.132,-2.707 -6.132,-6.113 0,-3.405 2.717,-6.113 6.132,-6.113 3.413,0 6.131,2.708 6.131,6.113 0,3.406 -2.718,6.113 -6.131,6.113 z m 4.345,-16.095 h -8.692 l -2.926,-35.279 h 14.545 z"
       inkscape:connector-curvature="0"
       style="opacity:0.75;fill:#ad998c;fill-rule:evenodd" />
  </g>
</svg>
