<?xml version="1.0" encoding="iso-8859-1"?>
<!-- Generator: Adobe Illustrator 19.0.0, SVG Export Plug-In . SVG Version: 6.00 Build 0)  -->
<svg version="1.1" id="Capa_1" xmlns="http://www.w3.org/2000/svg" xmlns:xlink="http://www.w3.org/1999/xlink" x="0px" y="0px"
	 viewBox="0 0 512.005 512.005" style="enable-background:new 0 0 512.005 512.005;" xml:space="preserve">
<g>
	<g>
		<path d="M320.005,181.569V42.668c0-4.309-2.603-8.213-6.592-9.835c-4.011-1.685-8.576-0.747-11.627,2.304L88.453,248.471
			c-4.16,4.16-4.16,10.923,0,15.083l213.333,213.333c2.048,2.027,4.779,3.115,7.552,3.115c1.365,0,2.752-0.256,4.075-0.811
			c3.989-1.643,6.592-5.547,6.592-9.856V331.436c34.688,3.371,142.4,21.696,171.093,119.573c1.493,5.077,6.549,8.363,11.755,7.552
			c5.248-0.768,9.152-5.248,9.152-10.56C512.005,210.071,360.709,184.215,320.005,181.569z M309.488,309.335
			c-3.285-0.491-5.589,1.067-7.637,3.072c-2.027,2.005-3.179,4.736-3.179,7.595v123.584L111.088,256.001L298.672,68.418v123.584
			c0,2.923,2.24,5.696,4.331,7.701c2.091,2.005,5.888,2.816,8.896,2.923c27.435,0,155.349,10.005,175.957,192.747
			C429.381,312.172,310.875,309.356,309.488,309.335z"/>
	</g>
</g>
<g>
	<g>
		<path d="M25.755,256.001L231.536,50.22c4.16-4.16,4.16-10.923,0-15.083c-4.16-4.16-10.923-4.16-15.083,0L3.12,248.471
			c-4.16,4.16-4.16,10.923,0,15.083l213.333,213.333c2.091,2.069,4.821,3.115,7.552,3.115s5.461-1.045,7.531-3.136
			c4.16-4.16,4.16-10.923,0-15.083L25.755,256.001z"/>
	</g>
</g>
<g>
</g>
<g>
</g>
<g>
</g>
<g>
</g>
<g>
</g>
<g>
</g>
<g>
</g>
<g>
</g>
<g>
</g>
<g>
</g>
<g>
</g>
<g>
</g>
<g>
</g>
<g>
</g>
<g>
</g>
</svg>
