<?xml version="1.0" encoding="UTF-8" standalone="no"?>
<svg
   xmlns:dc="http://purl.org/dc/elements/1.1/"
   xmlns:cc="http://creativecommons.org/ns#"
   xmlns:rdf="http://www.w3.org/1999/02/22-rdf-syntax-ns#"
   xmlns:svg="http://www.w3.org/2000/svg"
   xmlns="http://www.w3.org/2000/svg"
   xmlns:sodipodi="http://sodipodi.sourceforge.net/DTD/sodipodi-0.dtd"
   xmlns:inkscape="http://www.inkscape.org/namespaces/inkscape"
   height="500"
   viewBox="-112 -18 374.99999 375.21476"
   width="500"
   version="1.1"
   id="svg18"
   sodipodi:docname="robot.svg"
   inkscape:version="0.92.3 (2405546, 2018-03-11)">
  <metadata
     id="metadata24">
    <rdf:RDF>
      <cc:Work
         rdf:about="">
        <dc:format>image/svg+xml</dc:format>
        <dc:type
           rdf:resource="http://purl.org/dc/dcmitype/StillImage" />
        <dc:title />
      </cc:Work>
    </rdf:RDF>
  </metadata>
  <defs
     id="defs22">
    <clipPath
       clipPathUnits="userSpaceOnUse"
       id="clipPath1173">
      <g
         id="g1193"
         transform="translate(-86.629767,173.67646)"
         style="opacity:1"
         clip-path="none">
        <path
           inkscape:connector-curvature="0"
           style="fill:#186f3e;fill-opacity:1;stroke-width:7.50429535;stroke-miterlimit:4;stroke-dasharray:none"
           id="path1175"
           d="m 160.62305,50.375019 c -96.84766,0 -159.425785,-39.55469 -159.425785,-100.76954 0,-77.527289 85.703125,-137.671829 159.425785,-137.671829 73.73047,0 159.4375,60.14454 159.4375,137.671829 0,61.21485 -62.58595,100.76954 -159.4375,100.76954 z m 0,-221.410109 c -80.19141,0 -142.398441,64.84766 -142.398441,120.640569 0,61.80469 76.71094,83.73438 142.398441,83.73438 65.69139,0 142.40234,-21.92969 142.40234,-83.73438 0,-55.792909 -62.20704,-120.640569 -142.40234,-120.640569 z m 0,0" />
        <g
           id="g1191">
          <path
             d="m 118.04883,135.52736 c 0,9.40625 -7.62891,17.03125 -17.03125,17.03125 -9.410161,0 -17.031252,-7.625 -17.031252,-17.03125 0,-9.41016 7.621091,-17.02734 17.031252,-17.02734 9.40234,0 17.03125,7.61718 17.03125,17.02734 z m 0,0"
             id="path1177"
             style="opacity:0.98999999;fill:#186f3e;fill-opacity:1"
             inkscape:connector-curvature="0" />
          <path
             d="m 160.62305,-137.56243 c -61.136721,0 -110.699222,42.218746 -110.699222,80.167909 0,37.94532 49.562501,57.25782028 110.699222,57.25782028 61.14453,0 110.70311,-19.31250028 110.70311,-57.25782028 0,-37.949163 -49.55859,-80.167909 -110.70311,-80.167909 z m -13.83594,90.203069 c -4.77734,10.58594 -21.51563,13.35156 -37.39062,6.19141 -15.875001,-7.16797 -24.867193,-21.5586 -20.093751,-32.140634 4.78125,-10.57812 21.523431,-13.34765 37.394531,-6.18359 15.875,7.16797 24.86718,21.550784 20.08984,32.132814 z m 65.06249,6.19141 c -15.86718,7.16015 -32.60937,4.39453 -37.38671,-6.19141 -4.78125,-10.58203 4.21484,-24.964844 20.08984,-32.132814 15.87499,-7.16406 32.61718,-4.39453 37.39453,6.1875 4.77343,10.578124 -4.22266,24.968754 -20.09766,32.136724 z m 0,0"
             id="path1179"
             style="fill:#186f3e;fill-opacity:1"
             inkscape:connector-curvature="0" />
          <path
             d="m 160.62337,85.951569 c -20.50993,0 -39.69674,-5.42297 -56.62282,-10.21158 -20.029675,-5.64732 -37.341252,-10.5365 -47.811833,-3.51603 -3.410697,2.30534 -7.762277,0.89351 -9.706114,-3.16018 -1.943836,-4.05368 -0.744865,-9.19428 2.6691,-11.49189 15.341605,-10.32761 35.185071,-4.71898 58.158277,1.77156 16.16161,4.56813 34.47941,9.74354 53.31339,9.74354 18.83397,0 37.15176,-5.17541 53.31337,-9.73968 22.9438,-6.49054 42.7644,-12.08756 58.08314,-1.81797 3.42377,2.28987 4.62928,7.43434 2.6985,11.48803 -1.94057,4.04982 -6.2758,5.48485 -9.70611,3.18725 -10.45098,-6.98952 -27.74948,-2.11581 -47.76611,3.54697 -16.92607,4.78475 -36.1096,10.19998 -56.62279,10.19998 z m 0,0"
             id="path1181"
             style="opacity:1;fill:#186f3e;fill-opacity:1;stroke-width:6.82913494;stroke-miterlimit:4;stroke-dasharray:none"
             inkscape:connector-curvature="0" />
          <path
             d="m 160.62337,355.43275 c -49.46819,0 -89.648429,-30.10481 -113.131279,-84.78703 -1.780488,-4.14652 -0.3855,-9.21749 3.123206,-11.33717 3.508707,-2.08487 7.794947,-0.45256 9.575436,3.69783 20.93136,48.72547 56.596677,75.5618 100.432637,75.5618 44.59716,0 80.60549,-27.64088 101.39963,-77.85167 1.73803,-4.18133 5.99161,-5.93354 9.53625,-3.85255 3.53156,2.05005 4.98863,7.09782 3.25714,11.28302 -22.97973,55.46356 -64.6007,87.28577 -114.19302,87.28577 z m 0,0"
             id="path1183"
             style="fill:#186f3e;fill-opacity:1;stroke-width:6.82913494;stroke-miterlimit:4;stroke-dasharray:none"
             inkscape:connector-curvature="0" />
          <path
             d="m 39.553399,304.83903 c -7.657735,0 -15.109653,-5.46938 -22.172806,-71.4617 -3.835395,-35.83335 -6.315017,-80.59796 -6.315017,-114.04474 0,-42.149831 3.95301,-55.301101 9.876001,-62.066271 5.197717,-5.92968 11.470265,-5.68212 16.043997,-5.46939 0.83634,0.0309 1.695548,0.0773 2.567825,0.0773 25.534495,0 28.487819,52.937731 28.487819,92.747421 0,1.60909 -1.228374,160.21731 -28.487819,160.21731 z M 34.087788,68.588009 c -1.885031,0 -2.718104,0.19727 -3.253883,0.81229 -2.067982,2.35563 -5.527684,11.97153 -5.527684,49.932291 0,60.7202 7.429049,140.93136 14.600008,164.14336 6.252946,-18.50462 13.89108,-77.79365 13.89108,-138.85423 0,-72.231431 -11.868837,-75.886721 -14.24391,-75.886721 -1.045425,0 -2.077782,-0.0426 -3.084003,-0.0812 -0.94415,-0.0426 -1.728218,-0.0657 -2.381608,-0.0657 z m 0,0"
             id="path1185"
             style="opacity:1;fill:#186f3e;fill-opacity:1;stroke-width:6.82913494;stroke-miterlimit:4;stroke-dasharray:none"
             inkscape:connector-curvature="0" />
          <path
             d="m 281.69986,304.83903 c -27.26272,0 -28.49109,-158.60822 -28.49109,-160.21731 0,-39.80969 2.95659,-92.747421 28.49109,-92.747421 0.86901,0 1.72822,-0.0464 2.56129,-0.0773 4.577,-0.21273 10.84955,-0.46029 16.04727,5.46939 5.92626,6.76517 9.87599,19.91644 9.87599,62.066271 0,33.44678 -2.47634,78.21139 -6.31175,114.04474 -7.06642,65.99232 -14.52159,71.4617 -22.1728,71.4617 z m 2.19212,-16.0639 h 0.0718 z m 3.26695,-220.187121 c -0.65012,0 -1.43419,0.0232 -2.37507,0.0658 -1.00949,0.0387 -2.03858,0.0812 -3.084,0.0812 -2.38161,0 -14.24391,3.65529 -14.24391,75.886721 0,61.06058 7.63814,120.34961 13.89434,138.85423 7.16444,-23.212 14.59348,-103.42316 14.59348,-164.14336 0,-37.960761 -3.46297,-47.576661 -5.52442,-49.932291 -0.53578,-0.61501 -1.36884,-0.81229 -3.26042,-0.81229 z m 0,0"
             id="path1187"
             style="opacity:1;fill:#186f3e;fill-opacity:1;stroke-width:0.75042951;stroke-miterlimit:4;stroke-dasharray:none"
             inkscape:connector-curvature="0" />
          <path
             d="m 160.62305,8.3789193 c -72.421881,0 -119.218753,-25.8203103 -119.218753,-65.7734403 0,-49.945259 64.089843,-88.683539 119.218753,-88.683539 55.1328,0 119.22264,38.73828 119.22264,88.683539 0,39.95313 -46.79297,65.7734403 -119.22264,65.7734403 z m 0,-137.4257293 c -56.60547,0 -102.183597,39.195314 -102.183597,71.652289 0,33.66797 51.320317,48.7461003 102.183597,48.7461003 50.86717,0 102.19139,-15.0781303 102.19139,-48.7461003 0,-32.456975 -45.57811,-71.652289 -102.19139,-71.652289 z m 33.65234,100.374949 c -2.26953,0 -4.50781,-0.17578 -6.66406,-0.53516 -9.82031,-1.62109 -17.4375,-6.96875 -20.91016,-14.65234 -3.46875,-7.67578 -2.43359,-16.92187 2.84375,-25.36328 4.67578,-7.480474 12.3086,-13.882814 21.50391,-18.027344 9.19921,-4.140574 19.04296,-5.648386 27.75389,-4.210886 9.81641,1.621093 17.42969,6.968696 20.90625,14.652286 3.46875,7.675784 2.42969,16.921884 -2.84764,25.363284 -4.67188,7.48047 -12.30861,13.88282 -21.5,18.03125 -6.91797,3.1211 -14.19531,4.74219 -21.08594,4.74219 z m 17.8828,-46.289064 c -4.47265,0 -9.42578,1.11328 -14.09765,3.23047 -6.07421,2.742194 -11.20702,6.953124 -14.07812,11.542974 -1.03906,1.67187 -3.29687,5.91015 -1.75781,9.33203 1.54687,3.41406 6.22266,4.53125 8.16797,4.84375 5.32422,0.91015 11.87889,-0.17188 17.95702,-2.92188 6.07422,-2.74219 11.20703,-6.94531 14.07422,-11.53515 1.04297,-1.67188 3.30078,-5.91797 1.76172,-9.33203 -1.54688,-3.421884 -6.22266,-4.539074 -8.16407,-4.847664 -1.23045,-0.21094 -2.52734,-0.3125 -3.86328,-0.3125 z m -85.18358,46.289064 c -6.89063,0 -14.17187,-1.61719 -21.07812,-4.74219 -9.195321,-4.14843 -16.832041,-10.55078 -21.507819,-18.03125 -5.277343,-8.4414 -6.3125,-17.6875 -2.84375,-25.363284 3.46875,-7.68359 11.085938,-13.031193 20.906249,-14.652286 8.71094,-1.445313 18.55469,0.04297 27.75,4.210886 9.19141,4.14453 16.82813,10.54687 21.50781,18.027344 5.27735,8.44141 6.3086,17.6875 2.83594,25.36328 -3.46484,7.69531 -11.08594,13.03125 -20.89844,14.65234 -2.16406,0.35938 -4.39843,0.53516 -6.67187,0.53516 z M 109.0957,-74.960925 c -1.33984,0 -2.63281,0.10156 -3.86328,0.3125 -1.9414,0.30859 -6.617181,1.42578 -8.164061,4.847664 -1.54297,3.41406 0.71875,7.66015 1.76172,9.33203 2.871091,4.58984 8.000001,8.79296 14.078121,11.53515 6.07032,2.75 12.61328,3.83203 17.95313,2.92188 1.94531,-0.3125 6.62109,-1.42969 8.16406,-4.84375 h 0.004 c 1.53906,-3.42188 -0.71485,-7.66016 -1.76563,-9.33203 -2.86328,-4.58985 -7.99609,-8.80078 -14.07031,-11.542974 -4.67188,-2.11719 -9.62891,-3.23047 -14.09766,-3.23047 z m 0,0"
             id="path1189"
             style="fill:#186f3e;fill-opacity:1"
             inkscape:connector-curvature="0" />
        </g>
      </g>
    </clipPath>
    <clipPath
       clipPathUnits="userSpaceOnUse"
       id="clipPath1281">
      <path
         style="opacity:0.64499996;fill:#000000;fill-opacity:1;stroke:none;stroke-width:7.50429535;stroke-miterlimit:4;stroke-dasharray:none"
         d="M -115.52916,-68.653992 H 435.28609 V 354.58826 h -550.81525 z"
         id="path1283"
         inkscape:connector-curvature="0" />
    </clipPath>
  </defs>
  <sodipodi:namedview
     pagecolor="#ffffff"
     bordercolor="#666666"
     borderopacity="1"
     objecttolerance="10"
     gridtolerance="10"
     guidetolerance="10"
     inkscape:pageopacity="0"
     inkscape:pageshadow="2"
     inkscape:window-width="1366"
     inkscape:window-height="768"
     id="namedview20"
     showgrid="false"
     inkscape:snap-to-guides="true"
     inkscape:snap-grids="true"
     inkscape:snap-others="true"
     units="px"
     inkscape:zoom="1"
     inkscape:cx="251.5614"
     inkscape:cy="221.18792"
     inkscape:window-x="0"
     inkscape:window-y="0"
     inkscape:window-maximized="0"
     inkscape:current-layer="svg18" />
  <g
     id="g972"
     transform="matrix(1.0423621,0,0,1.0423621,-4.7627722,54.913592)"
     style="opacity:0.99999999;fill:#00733c;fill-opacity:1">
    <path
       inkscape:connector-curvature="0"
       style="opacity:0.98999999;fill:#00733c;fill-opacity:1"
       id="path8"
       d="m 34.420769,255.2679 c 0,9.40625 -7.62891,17.03125 -17.03125,17.03125 -9.41016,0 -17.03124996,-7.625 -17.03124996,-17.03125 0,-9.41016 7.62108996,-17.02734 17.03124996,-17.02734 9.40234,0 17.03125,7.61718 17.03125,17.02734 z m 0,0" />
    <path
       inkscape:connector-curvature="0"
       style="fill:#00733c;fill-opacity:1"
       id="path14"
       d="m 76.998909,-17.821897 c -61.13672,0 -110.69922,42.21875 -110.69922,80.167913 0,37.945324 49.5625,57.257824 110.69922,57.257824 61.144531,0 110.703111,-19.3125 110.703111,-57.257824 0,-37.949163 -49.55859,-80.167913 -110.703111,-80.167913 z m -13.83594,90.203073 c -4.77734,10.58594 -21.51563,13.35156 -37.39062,6.19141 -15.875,-7.16797 -24.86718996,-21.5586 -20.09375,-32.140634 4.78125,-10.57812 21.52343,-13.34765 37.39453,-6.18359 15.875,7.16797 24.86718,21.550784 20.08984,32.132814 z m 65.062491,6.19141 c -15.86718,7.16015 -32.609371,4.39453 -37.386711,-6.19141 -4.78125,-10.58203 4.21484,-24.964844 20.089841,-32.132814 15.87499,-7.16406 32.61718,-4.39453 37.39453,6.1875 4.77343,10.578124 -4.22266,24.968754 -20.09766,32.136724 z m 0,0" />
    <path
       inkscape:connector-curvature="0"
       style="fill:#00733c;fill-opacity:1;stroke-width:7.50429535;stroke-miterlimit:4;stroke-dasharray:none"
       id="path2"
       d="m 76.994989,170.11556 c -96.84766,0 -159.42578,-39.55469 -159.42578,-100.769544 0,-77.5272882 85.70312,-137.671826 159.42578,-137.671826 73.730471,0 159.437501,60.1445378 159.437501,137.671826 0,61.214854 -62.58595,100.769544 -159.437501,100.769544 z m 0,-221.41011 c -80.19141,0 -142.39844,64.847653 -142.39844,120.640566 0,61.804694 76.71094,83.734384 142.39844,83.734384 65.691391,0 142.402341,-21.92969 142.402341,-83.734384 0,-55.792913 -62.20704,-120.640566 -142.402341,-120.640566 z m 0,0" />
    <path
       inkscape:connector-curvature="0"
       style="opacity:1;fill:#00733c;fill-opacity:1;stroke-width:6.82913494;stroke-miterlimit:4;stroke-dasharray:none"
       id="path4"
       d="m 76.995309,205.69211 c -20.50993,0 -39.69674,-5.42297 -56.62282,-10.21158 -20.02967996,-5.64732 -37.34125,-10.5365 -47.81183,-3.51603 -3.4107,2.30534 -7.76228,0.89351 -9.70612,-3.16018 -1.94383,-4.05368 -0.74486,-9.19428 2.6691,-11.49189 15.34161,-10.32761 35.18507004,-4.71898 58.15828,1.77156 16.16161,4.56813 34.47941,9.74354 53.31339,9.74354 18.83397,0 37.151761,-5.17541 53.313371,-9.73968 22.9438,-6.49054 42.7644,-12.08756 58.08314,-1.81797 3.42377,2.28987 4.62928,7.43434 2.6985,11.48803 -1.94057,4.04982 -6.2758,5.48485 -9.70611,3.18725 -10.45098,-6.98952 -27.74948,-2.11581 -47.76611,3.54697 -16.92607,4.78475 -36.109601,10.19998 -56.622791,10.19998 z m 0,0" />
    <path
       inkscape:connector-curvature="0"
       style="fill:#00733c;fill-opacity:1;stroke-width:6.82913494;stroke-miterlimit:4;stroke-dasharray:none"
       id="path6"
       d="m 76.995309,475.17329 c -49.46819,0 -89.64843,-30.10481 -113.13128,-84.78703 -1.78049,-4.14652 -0.3855,-9.21749 3.12321,-11.33717 3.5087,-2.08487 7.79494,-0.45256 9.57543,3.69783 20.93136,48.72547 56.59668,75.5618 100.43264,75.5618 44.597161,0 80.605491,-27.64088 101.399631,-77.85167 1.73803,-4.18133 5.99161,-5.93354 9.53625,-3.85255 3.53156,2.05005 4.98863,7.09782 3.25714,11.28302 -22.97973,55.46356 -64.6007,87.28577 -114.193021,87.28577 z m 0,0" />
    <path
       inkscape:connector-curvature="0"
       style="opacity:1;fill:#00733c;fill-opacity:1;stroke-width:6.82913494;stroke-miterlimit:4;stroke-dasharray:none"
       id="path10"
       d="m -44.074661,424.57957 c -7.65774,0 -15.10965,-5.46938 -22.17281,-71.4617 -3.83539,-35.83335 -6.31501,-80.59796 -6.31501,-114.04474 0,-42.14983 3.95301,-55.3011 9.876,-62.06627 5.19771,-5.92968 11.47026,-5.68212 16.04399,-5.46939 0.83634,0.0309 1.69555,0.0773 2.56783,0.0773 25.53449,0 28.48782,52.93773 28.48782,92.74742 0,1.60909 -1.22838,160.21731 -28.48782,160.21731 z m -5.46561,-236.25102 c -1.88503,0 -2.71811,0.19727 -3.25389,0.81229 -2.06798,2.35563 -5.52768,11.97153 -5.52768,49.93229 0,60.7202 7.42905,140.93136 14.60001,164.14336 6.25295,-18.50462 13.89108,-77.79365 13.89108,-138.85423 0,-72.23143 -11.86884,-75.88672 -14.24391,-75.88672 -1.04543,0 -2.07778,-0.0426 -3.084,-0.0812 -0.94415,-0.0426 -1.72822,-0.0657 -2.38161,-0.0657 z m 0,0" />
    <path
       inkscape:connector-curvature="0"
       style="opacity:1;fill:#00733c;fill-opacity:1;stroke-width:0.75042951;stroke-miterlimit:4;stroke-dasharray:none"
       id="path12"
       d="m 198.0718,424.57957 c -27.26272,0 -28.49109,-158.60822 -28.49109,-160.21731 0,-39.80969 2.95659,-92.74742 28.49109,-92.74742 0.86901,0 1.72822,-0.0464 2.56129,-0.0773 4.577,-0.21273 10.84955,-0.46029 16.04727,5.46939 5.92626,6.76517 9.87599,19.91644 9.87599,62.06627 0,33.44678 -2.47634,78.21139 -6.31175,114.04474 -7.06642,65.99232 -14.52159,71.4617 -22.1728,71.4617 z m 2.19212,-16.0639 h 0.0718 z m 3.26695,-220.18712 c -0.65012,0 -1.43419,0.0232 -2.37507,0.0658 -1.00949,0.0387 -2.03858,0.0812 -3.084,0.0812 -2.38161,0 -14.24391,3.65529 -14.24391,75.88672 0,61.06058 7.63814,120.34961 13.89434,138.85423 7.16444,-23.212 14.59348,-103.42316 14.59348,-164.14336 0,-37.96076 -3.46297,-47.57666 -5.52442,-49.93229 -0.53578,-0.61501 -1.36884,-0.81229 -3.26042,-0.81229 z m 0,0" />
    <path
       inkscape:connector-curvature="0"
       id="path16"
       d="m 76.998649,-22.09072 c -55.12891,0 -119.21862,38.737333 -119.21862,88.682592 0,39.953128 46.79674,65.773978 119.21862,65.773978 72.429671,0 119.223021,-25.82085 119.223021,-65.773978 0,-49.945259 -64.09022,-88.682592 -119.223021,-88.682592 z m 0,17.0312298 c 56.613281,0 102.191791,39.1943852 102.191791,71.6513622 0,33.667968 -51.32462,48.747138 -102.191791,48.747138 -50.86328,0 -102.18447,-15.07917 -102.18447,-48.747138 0,-9.630286 4.0121,-19.853716 11.1348,-29.470482 v -0.340038 h 0.25796 C 3.178729,14.134609 37.387089,-5.0594902 76.998649,-5.0594902 Z"
       style="fill:#00733c;fill-opacity:1;stroke-width:1" />
  </g>
</svg>
